<?xml version="1.0" encoding="UTF-8" standalone="no"?>
<svg
   xmlns:dc="http://purl.org/dc/elements/1.1/"
   xmlns:cc="http://creativecommons.org/ns#"
   xmlns:rdf="http://www.w3.org/1999/02/22-rdf-syntax-ns#"
   xmlns:svg="http://www.w3.org/2000/svg"
   xmlns="http://www.w3.org/2000/svg"
   style="fill:none"
   id="svg10"
   version="1.1"
   viewBox="0 0 17.999901 14.14291"
   height="14.14291"
   width="17.999901">
  <metadata
     id="metadata16">
    <rdf:RDF>
      <cc:Work
         rdf:about="">
        <dc:format>image/svg+xml</dc:format>
        <dc:type
           rdf:resource="http://purl.org/dc/dcmitype/StillImage" />
      </cc:Work>
    </rdf:RDF>
  </metadata>
  <defs
     id="defs14" />
  <path
     style="fill:#395781"
     id="path2"
     d="m 16.3926,14.14291 c 0.4047,0 0.7552,-0.1336 1.0533,-0.3974 l -5.0997,-5.0999 c -0.1224,0.0877 -0.2409,0.1729 -0.353,0.2539 -0.3816,0.2812 -0.6914,0.5006 -0.9292,0.6578 -0.2378,0.1576 -0.5542,0.3182 -0.9492,0.4822 -0.39522,0.1642 -0.76343,0.246 -1.105,0.246 h -0.01 -0.01 c -0.3416,0 -0.70981,-0.0818 -1.10501,-0.246 C 7.48959,9.87551 7.17318,9.71491 6.9356,9.55731 6.69779,9.40011 6.38821,9.18071 6.00637,8.89951 5.89997,8.82151 5.78196,8.73591 5.65438,8.64431 l -5.100669,5.1012 c 0.298009,0.2638 0.648829,0.3974 1.053409,0.3974 z" />
  <path
     style="fill:#395781"
     id="path4"
     d="M 1.01462,5.43417 C 0.633012,5.17976 0.294611,4.88839 0,4.56018 v 7.75903 L 4.49485,7.82439 C 3.59562,7.19661 2.43702,6.40078 1.01462,5.43417 Z" />
  <path
     style="fill:#395781"
     id="path6"
     d="m 16.9955,5.43417 c -1.3682,0.92603 -2.531,1.72322 -3.4887,2.39202 l 4.4931,4.49322 V 4.56018 c -0.2881,0.3216 -0.6228,0.61278 -1.0044,0.87399 z" />
  <path
     style="fill:#395781"
     id="path8"
     d="M 16.3926,0 H 1.60704 C 1.09122,0 0.694648,0.17418 0.416835,0.52219 0.138792,0.87037 0,1.3058 0,1.82799 0,2.24979 0.184185,2.70682 0.552392,3.19921 0.920598,3.69141 1.3124,4.07801 1.7276,4.35922 c 0.22762,0.16082 0.91403,0.63801 2.05924,1.43142 0.61821,0.4284 1.15583,0.80181 1.61783,1.12403 0.39379,0.27438 0.7334,0.512 1.0138,0.70919 0.03219,0.02258 0.08281,0.05879 0.15,0.10683 0.07239,0.05199 0.16399,0.11798 0.277,0.19958 0.21761,0.15734 0.3984,0.28464 0.54239,0.38184 0.14379,0.0972 0.31801,0.2058 0.52239,0.3264 0.20422,0.1204 0.39683,0.2109 0.57762,0.2712 0.18082,0.0602 0.34821,0.0904 0.5022,0.0904 h 0.01 0.01 c 0.15395,0 0.32137,-0.0302 0.50222,-0.0904 0.18076,-0.0603 0.37321,-0.1506 0.57761,-0.2712 0.2042,-0.1206 0.3782,-0.2294 0.5224,-0.3264 0.144,-0.0972 0.3248,-0.2244 0.5424,-0.38184 0.1128,-0.0816 0.2044,-0.14762 0.2768,-0.19942 0.0672,-0.04823 0.1178,-0.08421 0.1502,-0.10699 0.2184,-0.152 0.5588,-0.38863 1.0165,-0.70641 0.8327,-0.5786 2.0591,-1.43021 3.6844,-2.55823 0.4888,-0.34141 0.8972,-0.7534 1.2254,-1.2354 0.3276,-0.482 0.4918,-0.98759 0.4918,-1.51662 0,-0.44199 -0.1592,-0.8202 -0.477,-1.1352 C 17.2046,0.15739 16.8278,0 16.3926,0 Z" />
</svg>
