<svg width="18" height="18" viewBox="0 0 18 18" fill="none" xmlns="http://www.w3.org/2000/svg">
<path d="M16.3926 16.0715C16.7973 16.0715 17.1478 15.9379 17.4459 15.6741L12.3462 10.5742C12.2238 10.6619 12.1053 10.7471 11.9932 10.8281C11.6116 11.1093 11.3018 11.3287 11.064 11.4859C10.8262 11.6435 10.5098 11.8041 10.1148 11.9681C9.71958 12.1323 9.35137 12.2141 9.0098 12.2141H8.9998H8.9898C8.6482 12.2141 8.27999 12.1323 7.88479 11.9681C7.48959 11.8041 7.17318 11.6435 6.9356 11.4859C6.69779 11.3287 6.38821 11.1093 6.00637 10.8281C5.89997 10.7501 5.78196 10.6645 5.65438 10.5729L0.553711 15.6741C0.85172 15.9379 1.20254 16.0715 1.60712 16.0715H16.3926V16.0715Z" fill="#395781"/>
<path d="M1.01462 7.36276C0.633012 7.10835 0.294611 6.81698 0 6.48877V14.2478L4.49485 9.75298C3.59562 9.1252 2.43702 8.32937 1.01462 7.36276Z" fill="#395781"/>
<path d="M16.9955 7.36276C15.6273 8.28879 14.4645 9.08598 13.5068 9.75478L17.9999 14.248V6.48877C17.7118 6.81037 17.3771 7.10155 16.9955 7.36276Z" fill="#395781"/>
<path d="M16.3926 1.92859H1.60704C1.09122 1.92859 0.694648 2.10277 0.416835 2.45078C0.138792 2.79896 0 3.23439 0 3.75658C0 4.17838 0.184185 4.63541 0.552392 5.1278C0.920598 5.62 1.3124 6.0066 1.7276 6.28781C1.95522 6.44863 2.64163 6.92582 3.78684 7.71923C4.40505 8.14763 4.94267 8.52104 5.40467 8.84326C5.79846 9.11764 6.13807 9.35526 6.41847 9.55245C6.45066 9.57503 6.50128 9.61124 6.56847 9.65928C6.64086 9.71127 6.73246 9.77726 6.84547 9.85886C7.06308 10.0162 7.24387 10.1435 7.38786 10.2407C7.53165 10.3379 7.70587 10.4465 7.91025 10.5671C8.11447 10.6875 8.30708 10.778 8.48787 10.8383C8.66869 10.8985 8.83608 10.9287 8.99007 10.9287H9.00007H9.01007C9.16402 10.9287 9.33144 10.8985 9.51229 10.8383C9.69305 10.778 9.8855 10.6877 10.0899 10.5671C10.2941 10.4465 10.4681 10.3377 10.6123 10.2407C10.7563 10.1435 10.9371 10.0163 11.1547 9.85886C11.2675 9.77726 11.3591 9.71124 11.4315 9.65944C11.4987 9.61121 11.5493 9.57523 11.5817 9.55245C11.8001 9.40045 12.1405 9.16382 12.5982 8.84604C13.4309 8.26744 14.6573 7.41583 16.2826 6.28781C16.7714 5.9464 17.1798 5.53441 17.508 5.05241C17.8356 4.57041 17.9998 4.06482 17.9998 3.53579C17.9998 3.0938 17.8406 2.71559 17.5228 2.40059C17.2046 2.08598 16.8278 1.92859 16.3926 1.92859Z" fill="#395781"/>
</svg>
