<?xml version="1.0" encoding="UTF-8" standalone="no"?>
<svg
   xmlns:dc="http://purl.org/dc/elements/1.1/"
   xmlns:cc="http://creativecommons.org/ns#"
   xmlns:rdf="http://www.w3.org/1999/02/22-rdf-syntax-ns#"
   xmlns:svg="http://www.w3.org/2000/svg"
   xmlns="http://www.w3.org/2000/svg"
   style="fill:none"
   id="svg11"
   version="1.1"
   viewBox="0 0 46 39.146793"
   height="39.146793"
   width="46">
  <metadata
     id="metadata15">
    <rdf:RDF>
      <cc:Work
         rdf:about="">
        <dc:format>image/svg+xml</dc:format>
        <dc:type
           rdf:resource="http://purl.org/dc/dcmitype/StillImage" />
      </cc:Work>
    </rdf:RDF>
  </metadata>
  <g
     transform="translate(-1.1631716e-7,-3.4390888)"
     id="g4"
     clip-path="url(#clip0)">
    <path
       style="fill:#395781"
       id="path2"
       d="m 45.069,20.1878 c -0.1365,-0.0442 -1.375,-0.4341 -2.7894,-0.4341 -0.8854,0 -1.6621,0.1555 -2.3159,0.4612 -0.013,-0.2261 -0.0291,-0.4514 -0.0512,-0.6763 1.1097,-0.3138 2.6219,-0.9462 3.4818,-2.1735 1.3876,-1.9814 0.7352,-5.0337 0.6566,-5.3752 -0.1555,-0.6713 -0.7925,-1.117 -1.4768,-1.0339 -0.3313,0.0404 -3.1452,0.4335 -4.6126,2.1795 -0.1003,-0.1861 -0.2039,-0.3714 -0.3116,-0.5539 -0.007,-0.0122 -0.0148,-0.0242 -0.0221,-0.0361 0.8728,-0.7538 1.9751,-1.9653 2.2352,-3.44003 C 40.2831,6.72285 38.4023,4.23285 38.1865,3.95665 37.7618,3.41373 36.9961,3.27861 36.411,3.6436 36.1281,3.82048 33.742,5.36713 33.151,7.57146 32.6228,7.17734 32.0722,6.81164 31.4998,6.48035 30.8554,6.10763 30.0311,6.32768 29.6583,6.97168 29.2856,7.61603 29.5057,8.44041 30.15,8.81312 c 1.7446,1.00969 3.2267,2.36398 4.3824,3.94608 0.0572,0.0822 0.1063,0.1495 0.1449,0.2015 1.1227,1.594 1.918,3.4098 2.3198,5.3348 0.0404,0.2495 0.0783,0.424 0.0937,0.4913 4e-4,0.0011 7e-4,0.0021 0.0011,0.0032 0.1361,0.7893 0.207,1.5947 0.207,2.4093 0,1.0981 -0.1249,2.1675 -0.3604,3.195 -0.0853,0.2903 -0.132,0.498 -0.1481,0.5739 -0.0021,0.0105 -0.0032,0.0214 -0.0053,0.0319 -0.5225,1.8937 -1.4259,3.6309 -2.6223,5.1239 -0.0842,0.0997 -0.1516,0.1828 -0.1979,0.2421 -1.2413,1.4825 -2.7764,2.7105 -4.5157,3.5927 -0.2513,0.1116 -0.4191,0.1987 -0.4717,0.2268 -0.0049,0.0024 -0.0091,0.0056 -0.0137,0.008 -1.8162,0.8367 -3.8362,1.3045 -5.9637,1.3045 -2.1275,0 -4.1479,-0.4678 -5.9644,-1.3048 C 17.0311,34.1908 17.0272,34.188 17.0227,34.1856 16.97,34.1575 16.803,34.0708 16.5517,33.9592 14.8124,33.0766 13.2766,31.8486 12.0353,30.3658 11.989,30.3068 11.9216,30.2237 11.8373,30.1243 10.6413,28.631 9.73795,26.8942 9.21503,25.0004 9.21328,24.9896 9.21223,24.979 9.20977,24.9682 9.19363,24.8923 9.14695,24.6846 9.06132,24.3943 8.82618,23.3668 8.70124,22.2974 8.70124,21.1993 c 0,-0.8142 0.07089,-1.6193 0.20706,-2.4086 0,-0.0014 7e-4,-0.0025 0.00106,-0.0039 0.01544,-0.0673 0.05369,-0.2418 0.0937,-0.4917 0.40184,-1.9235 1.19604,-3.7379 2.31764,-5.3313 0.0397,-0.053 0.0906,-0.1228 0.1499,-0.2081 C 12.6259,11.175 14.107,9.82211 15.8508,8.81312 16.4948,8.44076 16.7152,7.61638 16.3425,6.97203 15.9698,6.32768 15.1454,6.10763 14.5011,6.48035 13.9283,6.81164 13.3777,7.17769 12.8495,7.57181 12.2588,5.36713 9.87237,3.82048 9.58915,3.6436 9.00446,3.27861 8.23834,3.41373 7.81368,3.95665 7.59785,4.23285 5.71709,6.72285 6.13718,9.10582 6.39724,10.5805 7.49958,11.792 8.3724,12.5455 8.36538,12.5578 8.35766,12.5694 8.35029,12.5816 8.24255,12.7641 8.13937,12.9494 8.03899,13.1358 6.57131,11.3895 3.75738,10.9964 3.42643,10.956 2.74242,10.8725 2.10474,11.3182 1.94962,11.9903 c -0.07896,0.3415 -0.73103,3.3934 0.65664,5.3748 0.85948,1.2273 2.37173,1.8597 3.48144,2.1738 -0.02211,0.2246 -0.03825,0.4503 -0.05159,0.6763 -0.65347,-0.3057 -1.42978,-0.4611 -2.31558,-0.4611 -1.41399,0 -2.65285,0.3895 -2.789369,0.4337 -0.655579,0.2134 -1.044784,0.8872 -0.901596,1.5614 0.072998,0.3429 0.771744,3.3843 2.866925,4.5943 0.71208,0.411 1.59473,0.6195 2.62267,0.6195 3.5e-4,0 3.5e-4,0 7e-4,0 0.52292,0 1.02162,-0.0534 1.44978,-0.1229 0.07546,0.2138 0.15442,0.4257 0.23795,0.6353 -7e-4,0 -0.00141,0 -0.00211,0 -2.28083,0 -4.39988,1.9158 -4.63397,2.1341 -0.50397,0.4703 -0.57205,1.2452 -0.15723,1.7962 0.21093,0.2797 2.12958,2.7409 4.53992,2.9518 0.11441,0.0102 0.23163,0.0151 0.34885,0.0151 3.5e-4,0 0,0 3.5e-4,0 1.37012,0 2.68127,-0.691 3.5611,-1.2901 0.1586,0.1622 0.3201,0.3211 0.485,0.4766 -2.0727,0.9616 -3.18451,3.586 -3.3098,3.8959 -0.2583,0.6395 0.00807,1.3705 0.61662,1.6944 0.19548,0.1039 1.96218,1.0153 3.79978,1.0153 0,0 0,0 3e-4,0 0.5647,0 1.0904,-0.087 1.5621,-0.2586 1.408,-0.5124 2.41,-1.8095 3.0003,-2.8006 0.4843,0.1828 0.9788,0.3439 1.4828,0.4822 -0.7844,0.7977 -1.5028,1.813 -2.1331,3.0308 -0.3422,0.6609 -0.0835,1.474 0.5777,1.8162 0.6608,0.3422 1.474,0.0839 1.8161,-0.5773 1.2052,-2.3286 2.7497,-3.664 4.2381,-3.664 1.4881,0 3.033,1.3354 4.2378,3.664 0.2397,0.4629 0.7103,0.7282 1.1981,0.7282 0.2085,0 0.4205,-0.0484 0.6184,-0.1509 0.6609,-0.3422 0.9195,-1.1553 0.5773,-1.8165 -0.6303,-1.2178 -1.3487,-2.2331 -2.1331,-3.0305 0.504,-0.1383 0.9985,-0.2994 1.4825,-0.4822 0.5906,0.9907 1.5926,2.2882 3.001,2.8006 0.4713,0.1716 0.997,0.2586 1.562,0.2586 1.8376,0 3.604,-0.9114 3.7994,-1.0156 0.6089,-0.3236 0.875,-1.0546 0.6167,-1.6941 -0.125,-0.3099 -1.2368,-2.9346 -3.3095,-3.8959 0.1649,-0.1558 0.3264,-0.3148 0.485,-0.4766 0.8798,0.5991 2.191,1.2901 3.5611,1.2901 0.1172,0 0.2348,-0.0049 0.3492,-0.0151 2.4104,-0.2109 4.329,-2.6721 4.5396,-2.9518 0.4148,-0.551 0.3471,-1.3259 -0.1572,-1.7962 -0.2338,-0.2183 -2.3532,-2.1341 -4.634,-2.1341 -7e-4,0 -0.0014,0 -0.0021,0 0.0839,-0.2096 0.1628,-0.4215 0.2379,-0.6353 0.4282,0.0695 0.9272,0.1229 1.4505,0.1229 1.0283,0 1.9106,-0.2085 2.623,-0.6195 2.0949,-1.21 2.794,-4.251 2.8666,-4.5939 0.1432,-0.6749 -0.2457,-1.3484 -0.9016,-1.5618 z" />
  </g>
  <defs
     id="defs9">
    <clipPath
       id="clip0">
      <rect
         style="fill:#ffffff"
         y="0"
         x="0"
         id="rect6"
         transform="matrix(1,0,0,-1,0,46)"
         height="46"
         width="46" />
    </clipPath>
  </defs>
</svg>
