<?xml version="1.0" encoding="UTF-8" standalone="no"?>
<svg
   xmlns:dc="http://purl.org/dc/elements/1.1/"
   xmlns:cc="http://creativecommons.org/ns#"
   xmlns:rdf="http://www.w3.org/1999/02/22-rdf-syntax-ns#"
   xmlns:svg="http://www.w3.org/2000/svg"
   xmlns="http://www.w3.org/2000/svg"
   style="fill:none"
   id="svg13"
   version="1.1"
   viewBox="0 0 39.171398 45.999802"
   height="45.999802"
   width="39.171398">
  <metadata
     id="metadata17">
    <rdf:RDF>
      <cc:Work
         rdf:about="">
        <dc:format>image/svg+xml</dc:format>
        <dc:type
           rdf:resource="http://purl.org/dc/dcmitype/StillImage" />
      </cc:Work>
    </rdf:RDF>
  </metadata>
  <g
     transform="translate(-3.4140617)"
     id="g6"
     clip-path="url(#clip0)">
    <path
       style="fill:#395781"
       id="path2"
       d="m 22.9995,14.2363 c -4.8329,0 -8.7646,3.9317 -8.7646,8.7644 0,4.8329 3.9317,8.7646 8.7646,8.7646 4.8327,0 8.7644,-3.9317 8.7644,-8.7646 0,-4.8327 -3.9317,-8.7644 -8.7644,-8.7644 z m 5.2036,7.1138 -6.2789,6.2789 c -0.2635,0.2636 -0.6092,0.3955 -0.9546,0.3955 -0.3453,0 -0.6906,-0.1316 -0.9542,-0.3955 l -2.3995,-2.3994 c -0.5271,-0.5268 -0.5271,-1.3814 0,-1.9085 0.5268,-0.5272 1.3814,-0.5272 1.9085,0 l 1.4452,1.4452 5.325,-5.3246 c 0.5268,-0.5272 1.3814,-0.5272 1.9085,0 0.5271,0.5267 0.5271,1.3813 0,1.9084 z" />
    <path
       style="fill:#395781"
       id="path4"
       d="M 42.5398,12.4808 42.5384,12.445 C 42.5184,12.0032 42.5051,11.5357 42.497,11.0156 42.4595,8.4793 40.4433,6.38131 37.9066,6.23953 32.6177,5.94438 28.5264,4.2198 25.0305,0.812418 L 25.0007,0.783991 c -1.1402,-1.045484 -2.8602,-1.045484 -4.0008,0 L 20.97,0.812418 C 17.4742,4.2198 13.3828,5.94438 8.09398,6.23988 5.55766,6.38131 3.54109,8.4793 3.50354,11.016 3.49582,11.5326 3.48213,12 3.46213,12.445 l -0.00211,0.0832 c -0.10283,5.3931 -0.23057,12.105 2.01481,18.1972 1.23465,3.3502 3.10452,6.2624 5.55727,8.6562 2.7936,2.7262 6.4526,4.8905 10.8753,6.4326 0.1439,0.0502 0.2934,0.0909 0.4457,0.1214 0.2148,0.0428 0.431,0.0642 0.6472,0.0642 0.2162,0 0.4327,-0.0214 0.6471,-0.0642 0.1523,-0.0305 0.3029,-0.0716 0.4475,-0.1221 4.4174,-1.5449 8.0726,-3.7103 10.8637,-6.4361 2.4517,-2.3945 4.3216,-5.3074 5.5573,-8.6583 2.2538,-6.1104 2.1264,-12.835 2.0239,-18.2383 z M 22.9996,34.4644 c -6.3214,0 -11.4638,-5.1425 -11.4638,-11.4638 0,-6.3213 5.1424,-11.4638 11.4638,-11.4638 6.321,0 11.4638,5.1425 11.4638,11.4638 0,6.3213 -5.1428,11.4638 -11.4638,11.4638 z" />
  </g>
  <defs
     id="defs11">
    <clipPath
       id="clip0">
      <rect
         style="fill:#ffffff"
         y="0"
         x="0"
         id="rect8"
         height="46"
         width="46" />
    </clipPath>
  </defs>
</svg>
