<svg width="24" height="27" viewBox="0 0 24 27" fill="none" xmlns="http://www.w3.org/2000/svg">
<g clip-path="url(#clip0)">
<path d="M8.16526 17.4553H20.2974C20.5978 17.4553 20.8613 17.2213 20.9427 16.8814L23.6289 5.80696C23.6866 5.56821 23.6471 5.31175 23.5199 5.11338C23.3926 4.91563 23.1947 4.79883 22.9834 4.79883H6.61502L6.13499 2.25439C6.06679 1.89205 5.79399 1.63477 5.47922 1.63477H1.4054C1.03432 1.63477 0.733887 1.98866 0.733887 2.42578C0.733887 2.86311 1.03432 3.2168 1.4054 3.2168H4.94027L7.36522 16.0708C6.65174 16.4362 6.15073 17.2728 6.15073 18.2463C6.15073 19.5548 7.05447 20.6193 8.16526 20.6193H20.2974C20.6686 20.6193 20.9689 20.2657 20.9689 19.8283C20.9689 19.3912 20.6686 19.0373 20.2974 19.0373H8.16526C7.79541 19.0373 7.49375 18.6828 7.49375 18.2463C7.49375 17.8098 7.79541 17.4553 8.16526 17.4553Z" fill="white"/>
<path d="M7.49377 22.9924C7.49377 24.3011 8.39751 25.3655 9.50848 25.3655C10.6193 25.3655 11.523 24.3011 11.523 22.9924C11.523 21.684 10.6193 20.6194 9.50848 20.6194C8.39751 20.6194 7.49377 21.684 7.49377 22.9924Z" fill="white"/>
<path d="M16.9398 22.9924C16.9398 24.3011 17.8436 25.3655 18.9543 25.3655C20.0653 25.3655 20.9689 24.3011 20.9689 22.9924C20.9689 21.684 20.0653 20.6194 18.9543 20.6194C17.8436 20.6194 16.9398 21.684 16.9398 22.9924Z" fill="white"/>
</g>
<defs>
<clipPath id="clip0">
<rect width="22.9209" height="27" fill="white" transform="translate(0.733887)"/>
</clipPath>
</defs>
</svg>
