<?xml version="1.0" encoding="UTF-8" standalone="no"?>
<svg
   xmlns:dc="http://purl.org/dc/elements/1.1/"
   xmlns:cc="http://creativecommons.org/ns#"
   xmlns:rdf="http://www.w3.org/1999/02/22-rdf-syntax-ns#"
   xmlns:svg="http://www.w3.org/2000/svg"
   xmlns="http://www.w3.org/2000/svg"
   style="fill:none"
   id="svg19"
   version="1.1"
   viewBox="0 0 45.146458 46"
   height="46"
   width="45.146458">
  <metadata
     id="metadata23">
    <rdf:RDF>
      <cc:Work
         rdf:about="">
        <dc:format>image/svg+xml</dc:format>
        <dc:type
           rdf:resource="http://purl.org/dc/dcmitype/StillImage" />
      </cc:Work>
    </rdf:RDF>
  </metadata>
  <g
     transform="translate(-0.494141)"
     id="g12"
     clip-path="url(#clip0)">
    <path
       style="fill:#395781"
       id="path2"
       d="M 3.55811,26.6654 24.3372,5.88831 27.8007,9.35215 7.02155,30.1293 Z" />
    <path
       style="fill:#395781"
       id="path4"
       d="M 0.494141,33.1934 5.59167,31.0089 2.67942,28.0958 Z" />
    <path
       style="fill:#395781"
       id="path6"
       d="m 32.9941,4.15614 c 0.9557,-0.95614 0.9557,-2.50612 0,-3.462653 -0.9693,-0.924649 -2.4942,-0.924649 -3.4635,0 l -1.7313,1.731323 3.4635,3.46345 z" />
    <path
       style="fill:#395781"
       id="path8"
       d="m 25.4912,4.73408 1.1546,-1.15461 3.4627,3.46345 -1.1542,1.15422 z" />
    <path
       style="fill:#395781"
       id="path10"
       d="m 41.5594,11.718 h 4.0812 V 3.07727 L 2.71777,46.0001 H 45.6406 v -3.265 h -4.0812 c -0.4507,0 -0.8162,-0.3654 -0.8162,-0.8162 0,-0.4508 0.3655,-0.8162 0.8162,-0.8162 h 4.0812 v -3.265 h -2.4487 c -0.4507,0 -0.8162,-0.3655 -0.8162,-0.8162 0,-0.4508 0.3655,-0.8163 0.8162,-0.8163 h 2.4487 v -3.265 h -4.0812 c -0.4507,0 -0.8162,-0.3654 -0.8162,-0.8162 0,-0.4508 0.3655,-0.8162 0.8162,-0.8162 h 4.0812 v -3.265 h -2.4487 c -0.4507,0 -0.8162,-0.3655 -0.8162,-0.8162 0,-0.4508 0.3655,-0.8163 0.8162,-0.8163 h 2.4487 v -3.265 h -4.0812 c -0.4507,0 -0.8162,-0.3654 -0.8162,-0.8162 0,-0.4508 0.3655,-0.8162 0.8162,-0.8162 h 4.0812 v -3.265 h -2.4487 c -0.4507,0 -0.8162,-0.3655 -0.8162,-0.8163 0,-0.4507 0.3655,-0.8162 0.8162,-0.8162 h 2.4487 v -3.265 h -4.0812 c -0.4507,0 -0.8162,-0.3654 -0.8162,-0.8162 0,-0.4508 0.3655,-0.8162 0.8162,-0.8162 z m -2.4487,26.9359 c 0,0.4508 -0.3655,0.8163 -0.8162,0.8163 H 20.4531 c -0.33,0 -0.6277,-0.1989 -0.7541,-0.5042 -0.1263,-0.3049 -0.0562,-0.656 0.177,-0.8892 L 37.7174,20.2363 c 0.2335,-0.2336 0.5846,-0.3033 0.8895,-0.177 0.3049,0.1264 0.5038,0.4237 0.5038,0.7541 z" />
  </g>
  <defs
     id="defs17">
    <clipPath
       id="clip0">
      <rect
         style="fill:#ffffff"
         y="0"
         x="0"
         id="rect14"
         height="46"
         width="46" />
    </clipPath>
  </defs>
</svg>
