<?xml version="1.0" encoding="UTF-8" standalone="no"?>
<svg
   xmlns:dc="http://purl.org/dc/elements/1.1/"
   xmlns:cc="http://creativecommons.org/ns#"
   xmlns:rdf="http://www.w3.org/1999/02/22-rdf-syntax-ns#"
   xmlns:svg="http://www.w3.org/2000/svg"
   xmlns="http://www.w3.org/2000/svg"
   style="fill:none"
   id="svg15"
   version="1.1"
   viewBox="0 0 17.999399 18"
   height="18"
   width="17.999399">
  <metadata
     id="metadata19">
    <rdf:RDF>
      <cc:Work
         rdf:about="">
        <dc:format>image/svg+xml</dc:format>
        <dc:type
           rdf:resource="http://purl.org/dc/dcmitype/StillImage" />
      </cc:Work>
    </rdf:RDF>
  </metadata>
  <g
     id="g8"
     clip-path="url(#clip0)">
    <path
       style="fill:#395781"
       id="path2"
       d="m 13.6846,11.9074 c -0.5881,-0.5806 -1.3222,-0.5806 -1.9065,0 -0.4458,0.442 -0.8915,0.8839 -1.3297,1.3334 -0.1199,0.1236 -0.221,0.1498 -0.3671,0.0674 C 9.79289,13.1509 9.48574,13.0236 9.20857,12.8513 7.91633,12.0385 6.83384,10.9934 5.87496,9.81731 5.39926,9.23299 4.97601,8.60747 4.6801,7.90329 4.62017,7.76096 4.63141,7.66732 4.74752,7.5512 5.19325,7.12045 5.62774,6.67847 6.06598,6.23648 6.67652,5.6222 6.67652,4.90304 6.06224,4.28501 5.71389,3.93292 5.36555,3.58832 5.01721,3.23623 4.65763,2.87665 4.30179,2.51333 3.93847,2.15749 3.3504,1.58441 2.61626,1.58441 2.03194,2.16124 1.58246,2.60322 1.15172,3.05644 0.694749,3.49094 0.271493,3.89172 0.0579922,4.3824 0.0130446,4.95548 -0.0581224,5.88814 0.170361,6.76836 0.492485,7.62611 1.15172,9.40154 2.15555,10.9785 3.37288,12.4243 c 1.64433,1.9552 3.60704,3.5021 5.90311,4.6183 1.03381,0.5019 2.10501,0.8877 3.26991,0.9514 0.8016,0.045 1.4983,-0.1573 2.0564,-0.7828 0.382,-0.427 0.8128,-0.8166 1.2173,-1.2248 0.5993,-0.6068 0.6031,-1.341 0.0075,-1.9403 C 15.1154,13.3307 14.4,12.619 13.6846,11.9074 Z" />
    <path
       style="fill:#395781"
       id="path4"
       d="M 12.969,8.92211 14.3511,8.68614 C 14.1338,7.41637 13.5345,6.26646 12.6244,5.35253 11.6617,4.3899 10.4444,3.78311 9.10346,3.59583 L 8.90869,4.98545 c 1.03754,0.14608 1.98141,0.61429 2.72681,1.35967 0.7042,0.70418 1.1649,1.59564 1.3335,2.57699 z" />
    <path
       style="fill:#395781"
       id="path6"
       d="M 15.1302,2.9141 C 13.5346,1.31846 11.5157,0.310887 9.28706,0 L 9.09229,1.38963 c 1.92521,0.26968 3.67071,1.14242 5.04911,2.51706 1.3072,1.30723 2.165,2.95905 2.4759,4.77568 L 17.9994,8.4464 C 17.6361,6.34135 16.6435,4.43108 15.1302,2.9141 Z" />
  </g>
  <defs
     id="defs13">
    <clipPath
       id="clip0">
      <rect
         style="fill:#ffffff"
         y="0"
         x="0"
         id="rect10"
         height="18"
         width="18" />
    </clipPath>
  </defs>
</svg>
