<svg width="46" height="46" viewBox="0 0 46 46" fill="none" xmlns="http://www.w3.org/2000/svg">
<path d="M13.627 29.0329C11.3894 29.0329 9.57454 30.8477 9.57454 33.0787C9.57454 35.3162 11.3894 37.1311 13.627 37.1311C15.8581 37.1311 17.6728 35.3162 17.6728 33.0787C17.6728 30.8477 15.8581 29.0329 13.627 29.0329ZM13.627 35.1081C12.5082 35.1081 11.5976 34.1975 11.5976 33.0787C11.5976 31.9664 12.5082 31.0558 13.627 31.0558C14.7392 31.0558 15.6498 31.9664 15.6498 33.0787C15.6498 34.1975 14.7392 35.1081 13.627 35.1081ZM10.1386 29.0346H1.06942C0.710219 29.0346 0.419036 29.3258 0.419036 29.685V31.6585C0.419036 32.0177 0.710219 32.3089 1.06942 32.3089H8.33878C8.52864 31.0067 9.18587 29.8563 10.1386 29.0346ZM34.7992 29.0329C32.5681 29.0329 30.7534 30.8477 30.7534 33.0787C30.7534 35.3162 32.5682 37.1311 34.7992 37.1311C37.0368 37.1311 38.845 35.3162 38.845 33.0787C38.845 30.8477 37.0368 29.0329 34.7992 29.0329ZM34.7992 35.1081C33.6804 35.1081 32.7763 34.1975 32.7763 33.0787C32.7763 31.9664 33.6804 31.0558 34.7992 31.0558C35.918 31.0558 36.8221 31.9664 36.8221 33.0787C36.8222 34.1975 35.918 35.1081 34.7992 35.1081ZM45.3496 29.0329H43.769V20.1932C43.769 19.1591 43.4568 18.1444 42.8779 17.2857L38.9167 11.4187C37.9539 9.98763 36.3344 9.12904 34.6042 9.12904H28.4639C27.7484 9.12904 27.163 9.70794 27.163 10.43V29.0329H17.1134C18.0631 29.8589 18.72 31.0038 18.9087 32.3111H29.5176C29.8884 29.7289 32.1129 27.732 34.7993 27.732C37.4856 27.732 39.7102 29.7288 40.0874 32.3111H45.3496C45.7139 32.3111 46 32.0184 46 31.6607V29.6833C46 29.3256 45.7138 29.0329 45.3496 29.0329ZM38.871 18.4565H30.7664C30.4086 18.4565 30.1159 18.1703 30.1159 17.806V13.3115C30.1159 12.9537 30.4088 12.661 30.7664 12.661H35.7034C35.918 12.661 36.1197 12.7651 36.2368 12.9342L39.4046 17.4353C39.7101 17.8646 39.3979 18.4565 38.871 18.4565ZM24.0667 27.732H1.30085C0.582441 27.732 0 27.1496 0 26.4311V20.577C0 19.8585 0.582441 19.2761 1.30085 19.2761H24.0667C24.7852 19.2761 25.3676 19.8585 25.3676 20.577V26.4311C25.3676 27.1496 24.7852 27.732 24.0667 27.732ZM10.4073 17.3248H1.30085C0.582441 17.3248 0 16.7423 0 16.0238V10.1698C0 9.45134 0.582441 8.8689 1.30085 8.8689H10.4072C11.1257 8.8689 11.7081 9.45134 11.7081 10.1698V16.0238C11.7082 16.7423 11.1258 17.3248 10.4073 17.3248ZM24.0667 17.3248H14.9604C14.242 17.3248 13.6595 16.7423 13.6595 16.0239V10.1698C13.6595 9.45134 14.242 8.86897 14.9604 8.86897H24.0668C24.7853 8.86897 25.3677 9.45141 25.3677 10.1698V16.0239C25.3676 16.7423 24.7852 17.3248 24.0667 17.3248Z" fill="#395781"/>
</svg>
