<?xml version="1.0" encoding="UTF-8" standalone="no"?>
<svg
   xmlns:dc="http://purl.org/dc/elements/1.1/"
   xmlns:cc="http://creativecommons.org/ns#"
   xmlns:rdf="http://www.w3.org/1999/02/22-rdf-syntax-ns#"
   xmlns:svg="http://www.w3.org/2000/svg"
   xmlns="http://www.w3.org/2000/svg"
   style="fill:none"
   id="svg4"
   version="1.1"
   viewBox="0 0 46 28.262199"
   height="28.262199"
   width="46">
  <metadata
     id="metadata10">
    <rdf:RDF>
      <cc:Work
         rdf:about="">
        <dc:format>image/svg+xml</dc:format>
        <dc:type
           rdf:resource="http://purl.org/dc/dcmitype/StillImage" />
      </cc:Work>
    </rdf:RDF>
  </metadata>
  <defs
     id="defs8" />
  <path
     style="fill:#395781"
     id="path2"
     d="m 13.627,20.164 c -2.2376,0 -4.05246,1.8148 -4.05246,4.0458 0,2.2375 1.81486,4.0524 4.05246,4.0524 2.2311,0 4.0458,-1.8149 4.0458,-4.0524 0,-2.231 -1.8147,-4.0458 -4.0458,-4.0458 z m 0,6.0752 c -1.1188,0 -2.0294,-0.9106 -2.0294,-2.0294 0,-1.1123 0.9106,-2.0229 2.0294,-2.0229 1.1122,0 2.0228,0.9106 2.0228,2.0229 0,1.1188 -0.9106,2.0294 -2.0228,2.0294 z M 10.1386,20.1657 H 1.06942 c -0.359201,0 -0.650384,0.2912 -0.650384,0.6504 v 1.9735 c 0,0.3592 0.291183,0.6504 0.650384,0.6504 H 8.33878 C 8.52864,22.1378 9.18587,20.9874 10.1386,20.1657 Z M 34.7992,20.164 c -2.2311,0 -4.0458,1.8148 -4.0458,4.0458 0,2.2375 1.8148,4.0524 4.0458,4.0524 2.2376,0 4.0458,-1.8149 4.0458,-4.0524 0,-2.231 -1.8082,-4.0458 -4.0458,-4.0458 z m 0,6.0752 c -1.1188,0 -2.0229,-0.9106 -2.0229,-2.0294 0,-1.1123 0.9041,-2.0229 2.0229,-2.0229 1.1188,0 2.0229,0.9106 2.0229,2.0229 1e-4,1.1188 -0.9041,2.0294 -2.0229,2.0294 z M 45.3496,20.164 H 43.769 v -8.8397 c 0,-1.0341 -0.3122,-2.0488 -0.8911,-2.9075 L 38.9167,2.5498 C 37.9539,1.11873 36.3344,0.26014 34.6042,0.26014 h -6.1403 c -0.7155,0 -1.3009,0.5789 -1.3009,1.30096 V 20.164 H 17.1134 c 0.9497,0.826 1.6066,1.9709 1.7953,3.2782 h 10.6089 c 0.3708,-2.5822 2.5953,-4.5791 5.2817,-4.5791 2.6863,0 4.9109,1.9968 5.2881,4.5791 h 5.2622 C 45.7139,23.4422 46,23.1495 46,22.7918 V 20.8144 C 46,20.4567 45.7138,20.164 45.3496,20.164 Z M 38.871,9.5876 h -8.1046 c -0.3578,0 -0.6505,-0.2862 -0.6505,-0.6505 V 4.4426 c 0,-0.3578 0.2929,-0.6505 0.6505,-0.6505 h 4.937 c 0.2146,0 0.4163,0.1041 0.5334,0.2732 l 3.1678,4.5011 C 39.7101,8.9957 39.3979,9.5876 38.871,9.5876 Z M 24.0667,18.8631 H 1.30085 C 0.582441,18.8631 0,18.2807 0,17.5622 V 11.7081 C 0,10.9896 0.582441,10.4072 1.30085,10.4072 H 24.0667 c 0.7185,0 1.3009,0.5824 1.3009,1.3009 v 5.8541 c 0,0.7185 -0.5824,1.3009 -1.3009,1.3009 z M 10.4073,8.4559 H 1.30085 C 0.582441,8.4559 0,7.8734 0,7.1549 V 1.3009 C 0,0.58244 0.582441,0 1.30085,0 h 9.10635 c 0.7185,0 1.3009,0.58244 1.3009,1.3009 v 5.854 c 10e-5,0.7185 -0.5823,1.301 -1.3008,1.301 z m 13.6594,0 h -9.1063 c -0.7184,0 -1.3009,-0.5825 -1.3009,-1.3009 V 1.3009 C 13.6595,0.58244 14.242,7e-5 14.9604,7e-5 h 9.1064 c 0.7185,0 1.3009,0.58244 1.3009,1.30083 V 7.155 c -10e-5,0.7184 -0.5825,1.3009 -1.301,1.3009 z" />
</svg>
