<?xml version="1.0" encoding="UTF-8" standalone="no"?>
<svg
   xmlns:dc="http://purl.org/dc/elements/1.1/"
   xmlns:cc="http://creativecommons.org/ns#"
   xmlns:rdf="http://www.w3.org/1999/02/22-rdf-syntax-ns#"
   xmlns:svg="http://www.w3.org/2000/svg"
   xmlns="http://www.w3.org/2000/svg"
   style="fill:none"
   id="svg4"
   version="1.1"
   viewBox="0 0 22 15.125"
   height="15.125"
   width="22">
  <metadata
     id="metadata10">
    <rdf:RDF>
      <cc:Work
         rdf:about="">
        <dc:format>image/svg+xml</dc:format>
        <dc:type
           rdf:resource="http://purl.org/dc/dcmitype/StillImage" />
      </cc:Work>
    </rdf:RDF>
  </metadata>
  <defs
     id="defs8" />
  <path
     style="fill:#a0a0a0"
     id="path2"
     d="M 21.065,1.4575 C 20.4682,0.396 19.8206,0.20075 18.502,0.1265 17.1848,0.03713 13.8724,0 11.0027,0 8.12762,0 4.81387,0.03713 3.498,0.12513 2.18212,0.20075 1.53312,0.39462 0.930875,1.4575 0.31625,2.51762 0,4.34363 0,7.5584 0,7.5611 0,7.5625 0,7.5625 0,7.5653 0,7.5666 0,7.5666 v 0.0028 c 0,3.201 0.31625,5.0407 0.930875,6.0899 0.602245,1.0615 1.249875,1.254 2.565745,1.3433 1.31725,0.077 4.631,0.1224 7.50608,0.1224 2.8697,0 6.182,-0.0454 7.5007,-0.121 1.3186,-0.0894 1.9662,-0.2819 2.563,-1.3434 C 21.6865,12.6115 22,10.7717 22,7.5707 c 0,0 0,-0.0041 0,-0.0068 0,0 0,-0.0028 0,-0.0041 C 22,4.34363 21.6865,2.51762 21.065,1.4575 Z M 8.25,11.6875 v -8.25 l 6.875,4.125 z" />
</svg>
